<svg width="972" height="972" viewBox="0 0 972 972" fill="none" xmlns="http://www.w3.org/2000/svg">
<path d="M312.858 714.433C246.029 714.433 125.365 662.454 73.3868 636.465C125.365 610.476 246.029 558.498 312.858 558.498C396.394 558.498 407.532 614.189 407.532 636.465C407.532 658.742 396.394 714.433 312.858 714.433Z" stroke="white" stroke-width="17.8675" stroke-linejoin="round"/>
<circle cx="31.3868" cy="636.697" r="14.3868" transform="rotate(-90 31.3868 636.697)" fill="white"/>
<circle cx="328.986" cy="637.393" r="43.1605" transform="rotate(-90 328.986 637.393)" fill="white"/>
<path d="M658.142 714.433C724.971 714.433 845.635 662.454 897.613 636.465C845.635 610.476 724.971 558.498 658.142 558.498C574.606 558.498 563.467 614.189 563.467 636.465C563.467 658.742 574.606 714.433 658.142 714.433Z" stroke="white" stroke-width="17.8675" stroke-linejoin="round"/>
<circle cx="14.3868" cy="14.3868" r="14.3868" transform="matrix(4.37114e-08 -1 -1 -4.37114e-08 954 651.084)" fill="white"/>
<circle cx="43.1605" cy="43.1605" r="43.1605" transform="matrix(4.37114e-08 -1 -1 -4.37114e-08 685.176 680.553)" fill="white"/>
<path d="M561.958 389.151C561.958 330.453 511.345 277.259 484.119 258C456.892 277.259 406.023 330.453 406.023 389.151C406.023 468.916 457.831 511.611 483.862 536.154C509.894 511.611 561.958 468.916 561.958 389.151Z" stroke="white" stroke-width="17.8675" stroke-linejoin="round"/>
<ellipse cx="43.0444" cy="43.0445" rx="43.0444" ry="43.0445" transform="matrix(4.37114e-08 -1 -1 -4.37114e-08 527.848 439.923)" fill="white"/>
</svg>
